<svg width="2100" height="844" viewBox="0 0 2100 844" xmlns="http://www.w3.org/2000/svg" xmlns:xlink="http://www.w3.org/1999/xlink"><title>bg-bottom</title><defs><linearGradient x1="50%" y1="0%" x2="50%" y2="100%" id="b"><stop stop-color="#65207F" offset="0%"/><stop stop-color="#2D2F5A" offset="100%"/></linearGradient><path d="M0 0h2202.611L2206 806.957c-930.18-254.174-1651.959 157.492-2202.611 0L0 0z" id="a"/></defs><g transform="rotate(180 1066.5 422)" fill="none" fill-rule="evenodd"><mask id="c" fill="#fff"><use xlink:href="#a"/></mask><use fill="url(#b)" xlink:href="#a"/><path d="M0 0h2202.611L2206 806.957c-930.18-254.174-1651.959 157.492-2202.611 0L0 0z" fill="url(#b)" mask="url(#c)"/><path fill-opacity=".06" fill="#FFF" mask="url(#c)" transform="rotate(45 369 514.5)" d="M-23.603-83.585L764-85v1199H-26z"/><path fill-opacity=".06" fill="#FFF" mask="url(#c)" transform="rotate(45 751 630)" d="M356-90h790v1440H356z"/><path fill-opacity=".06" fill="#FFF" mask="url(#c)" transform="rotate(45 1654 515)" d="M1259-205h790v1440h-790z"/><path fill-opacity=".1" fill="#000" mask="url(#c)" d="M-5 598h2306v291H-5z"/></g></svg>