<?xml version="1.0" encoding="UTF-8"?>
<svg width="2100px" height="842px" viewBox="0 0 2100 842" version="1.1" xmlns="http://www.w3.org/2000/svg" xmlns:xlink="http://www.w3.org/1999/xlink">
    <!-- Generator: Sketch 49 (51002) - http://www.bohemiancoding.com/sketch -->
    <title>bg-top</title>
    <desc>Created with Sketch.</desc>
    <defs>
        <rect id="path-1" x="396" y="278" width="2100" height="842"></rect>
        <linearGradient x1="50%" y1="0%" x2="50%" y2="100%" id="linearGradient-3">
            <stop stop-color="#65207F" offset="0%"></stop>
            <stop stop-color="#2D2F5A" offset="100%"></stop>
        </linearGradient>
    </defs>
    <g id="Home" stroke="none" stroke-width="1" fill="none" fill-rule="evenodd">
        <g id="Artboard-2">
            <g id="bg-top" transform="translate(-396.000000, -278.000000)">
                <mask id="mask-2" fill="white">
                    <use xlink:href="#path-1"></use>
                </mask>
                <g id="Rectangle-3"></g>
                <path d="M335,273 L2531.62058,273 C2533.87353,810.971635 2535,1079.95745 2535,1079.95745 C1607.35023,825.78289 887.534562,1237.44915 338.379416,1079.95745 C338.379416,1079.95745 337.252944,810.971635 335,273 Z" id="Rectangle-2" fill="url(#linearGradient-3)" mask="url(#mask-2)"></path>
                <polygon id="Rectangle" fill-opacity="0.0599999987" fill="#FFFFFF" mask="url(#mask-2)" transform="translate(702.500000, 787.500000) rotate(45.000000) translate(-702.500000, -787.500000) " points="311.388382 189.414749 1096 188 1096 1387 309 1387"></polygon>
                <rect id="Rectangle-Copy" fill-opacity="0.0599999987" fill="#FFFFFF" mask="url(#mask-2)" transform="translate(1083.500000, 903.000000) rotate(45.000000) translate(-1083.500000, -903.000000) " x="690" y="183" width="787" height="1440"></rect>
                <rect id="Rectangle-Copy-2" fill-opacity="0.0599999987" fill="#FFFFFF" mask="url(#mask-2)" transform="translate(1984.500000, 788.000000) rotate(45.000000) translate(-1984.500000, -788.000000) " x="1591" y="68" width="787" height="1440"></rect>
            </g>
        </g>
    </g>
</svg>