<svg width="138" height="43" viewBox="0 0 138 43" xmlns="http://www.w3.org/2000/svg"><title>logo</title><path d="M0 7.88h3.4V6.16c0-1.307.16-2.367.48-3.18.32-.813.747-1.44 1.28-1.88A4.216 4.216 0 0 1 6.98.22C7.66.073 8.373 0 9.12 0c1.467 0 2.533.093 3.2.28v3.56a6.528 6.528 0 0 0-.94-.18c-.333-.04-.727-.06-1.18-.06-.613 0-1.14.147-1.58.44-.44.293-.66.867-.66 1.72v2.12h3.88v3.4H7.96v17.28H3.4V11.28H0v-3.4zm13.68 0h4.28v4h.08c.133-.56.393-1.107.78-1.64a7.605 7.605 0 0 1 1.4-1.46 7.075 7.075 0 0 1 1.82-1.06 5.449 5.449 0 0 1 2.04-.4c.533 0 .9.013 1.1.04.2.027.407.053.62.08v4.4c-.32-.053-.647-.1-.98-.14-.333-.04-.66-.06-.98-.06-.773 0-1.5.153-2.18.46-.68.307-1.273.76-1.78 1.36-.507.6-.907 1.34-1.2 2.22-.293.88-.44 1.893-.44 3.04v9.84h-4.56V7.88zm26.6 8.52a7.353 7.353 0 0 0-.46-2.08 5.542 5.542 0 0 0-1.04-1.74 5.15 5.15 0 0 0-1.6-1.2c-.627-.307-1.327-.46-2.1-.46-.8 0-1.527.14-2.18.42a4.986 4.986 0 0 0-1.68 1.16 5.737 5.737 0 0 0-1.12 1.74 6.07 6.07 0 0 0-.46 2.16h10.64zm-10.64 3c0 .8.113 1.573.34 2.32.227.747.567 1.4 1.02 1.96a4.916 4.916 0 0 0 1.72 1.34c.693.333 1.52.5 2.48.5 1.333 0 2.407-.287 3.22-.86.813-.573 1.42-1.433 1.82-2.58h4.32c-.24 1.12-.653 2.12-1.24 3a8.628 8.628 0 0 1-2.12 2.22 9.15 9.15 0 0 1-2.78 1.36c-1.027.307-2.1.46-3.22.46-1.627 0-3.067-.267-4.32-.8-1.253-.533-2.313-1.28-3.18-2.24-.867-.96-1.52-2.107-1.96-3.44-.44-1.333-.66-2.8-.66-4.4 0-1.467.233-2.86.7-4.18a10.7 10.7 0 0 1 2-3.48 9.564 9.564 0 0 1 3.14-2.38c1.227-.587 2.613-.88 4.16-.88 1.627 0 3.087.34 4.38 1.02a9.611 9.611 0 0 1 3.22 2.7c.853 1.12 1.473 2.407 1.86 3.86.387 1.453.487 2.953.3 4.5h-15.2zm31.92-3a7.353 7.353 0 0 0-.46-2.08 5.542 5.542 0 0 0-1.04-1.74 5.15 5.15 0 0 0-1.6-1.2c-.627-.307-1.327-.46-2.1-.46-.8 0-1.527.14-2.18.42a4.986 4.986 0 0 0-1.68 1.16 5.737 5.737 0 0 0-1.12 1.74 6.07 6.07 0 0 0-.46 2.16h10.64zm-10.64 3c0 .8.113 1.573.34 2.32.227.747.567 1.4 1.02 1.96A4.916 4.916 0 0 0 54 25.02c.693.333 1.52.5 2.48.5 1.333 0 2.407-.287 3.22-.86.813-.573 1.42-1.433 1.82-2.58h4.32c-.24 1.12-.653 2.12-1.24 3a8.628 8.628 0 0 1-2.12 2.22 9.15 9.15 0 0 1-2.78 1.36c-1.027.307-2.1.46-3.22.46-1.627 0-3.067-.267-4.32-.8-1.253-.533-2.313-1.28-3.18-2.24-.867-.96-1.52-2.107-1.96-3.44-.44-1.333-.66-2.8-.66-4.4 0-1.467.233-2.86.7-4.18a10.7 10.7 0 0 1 2-3.48A9.564 9.564 0 0 1 52.2 8.2c1.227-.587 2.613-.88 4.16-.88 1.627 0 3.087.34 4.38 1.02a9.611 9.611 0 0 1 3.22 2.7c.853 1.12 1.473 2.407 1.86 3.86.387 1.453.487 2.953.3 4.5h-15.2zM68.76 0h4.56v28.56h-4.56V0zm25.88 23.96c0 .56.073.96.22 1.2.147.24.433.36.86.36h.48c.187 0 .4-.027.64-.08v3.16a13.36 13.36 0 0 1-1.4.36 8.276 8.276 0 0 1-1.48.16c-.933 0-1.707-.187-2.32-.56-.613-.373-1.013-1.027-1.2-1.96-.907.88-2.02 1.52-3.34 1.92-1.32.4-2.593.6-3.82.6a9.367 9.367 0 0 1-2.68-.38 7.033 7.033 0 0 1-2.26-1.12 5.368 5.368 0 0 1-1.56-1.88c-.387-.76-.58-1.647-.58-2.66 0-1.28.233-2.32.7-3.12a5.186 5.186 0 0 1 1.84-1.88 8.31 8.31 0 0 1 2.56-.98c.947-.2 1.9-.353 2.86-.46a23.4 23.4 0 0 1 2.36-.34c.747-.067 1.407-.18 1.98-.34.573-.16 1.027-.407 1.36-.74.333-.333.5-.833.5-1.5 0-.587-.14-1.067-.42-1.44a2.819 2.819 0 0 0-1.04-.86 4.493 4.493 0 0 0-1.38-.4 11.06 11.06 0 0 0-1.44-.1c-1.28 0-2.333.267-3.16.8s-1.293 1.36-1.4 2.48h-4.56c.08-1.333.4-2.44.96-3.32a6.632 6.632 0 0 1 2.14-2.12c.867-.533 1.847-.907 2.94-1.12a17.504 17.504 0 0 1 3.36-.32c1.013 0 2.013.107 3 .32.987.213 1.873.56 2.66 1.04.787.48 1.42 1.1 1.9 1.86s.72 1.687.72 2.78v10.64zm-4.56-5.76c-.693.453-1.547.727-2.56.82a33.972 33.972 0 0 0-3.04.42c-.48.08-.947.193-1.4.34a4.216 4.216 0 0 0-1.2.6 2.63 2.63 0 0 0-.82 1c-.2.413-.3.913-.3 1.5 0 .507.147.933.44 1.28.293.347.647.62 1.06.82.413.2.867.34 1.36.42.493.08.94.12 1.34.12.507 0 1.053-.067 1.64-.2a5.454 5.454 0 0 0 1.66-.68 4.37 4.37 0 0 0 1.3-1.22c.347-.493.52-1.1.52-1.82v-3.4zm8.88 4.96h5.56v5.4h-5.56v-5.4zM108.88 0h4.56v4.32h-4.56V0zm0 7.88h4.56v20.68h-4.56V7.88zm18.04 21.24c-1.653 0-3.127-.273-4.42-.82-1.293-.547-2.387-1.3-3.28-2.26-.893-.96-1.573-2.107-2.04-3.44-.467-1.333-.7-2.8-.7-4.4 0-1.573.233-3.027.7-4.36.467-1.333 1.147-2.48 2.04-3.44s1.987-1.713 3.28-2.26c1.293-.547 2.767-.82 4.42-.82s3.127.273 4.42.82c1.293.547 2.387 1.3 3.28 2.26.893.96 1.573 2.107 2.04 3.44.467 1.333.7 2.787.7 4.36 0 1.6-.233 3.067-.7 4.4-.467 1.333-1.147 2.48-2.04 3.44s-1.987 1.713-3.28 2.26c-1.293.547-2.767.82-4.42.82zm0-3.6c1.013 0 1.893-.213 2.64-.64a5.563 5.563 0 0 0 1.84-1.68 7.332 7.332 0 0 0 1.06-2.34 10.47 10.47 0 0 0 0-5.3 7.077 7.077 0 0 0-1.06-2.34 5.65 5.65 0 0 0-1.84-1.66c-.747-.427-1.627-.64-2.64-.64-1.013 0-1.893.213-2.64.64a5.65 5.65 0 0 0-1.84 1.66c-.48.68-.833 1.46-1.06 2.34a10.47 10.47 0 0 0 0 5.3c.227.867.58 1.647 1.06 2.34a5.563 5.563 0 0 0 1.84 1.68c.747.427 1.627.64 2.64.64zM18.264 36.272c.024-.36.1-.672.228-.936s.302-.48.522-.648a2.21 2.21 0 0 1 .774-.372c.296-.08.624-.12.984-.12.272 0 .544.026.816.078.272.052.516.15.732.294.216.144.392.346.528.606s.204.598.204 1.014v3.288c0 .304.148.456.444.456a.585.585 0 0 0 .24-.048v.636a2.278 2.278 0 0 1-.492.048c-.192 0-.346-.026-.462-.078a.62.62 0 0 1-.27-.222.833.833 0 0 1-.126-.342 2.936 2.936 0 0 1-.03-.438h-.024c-.136.2-.274.378-.414.534-.14.156-.296.286-.468.39a2.158 2.158 0 0 1-.588.24c-.22.056-.482.084-.786.084-.288 0-.558-.034-.81-.102a1.82 1.82 0 0 1-.66-.324 1.55 1.55 0 0 1-.444-.564 1.876 1.876 0 0 1-.162-.81c0-.432.096-.77.288-1.014.192-.244.446-.43.762-.558a4.347 4.347 0 0 1 1.068-.27 90.32 90.32 0 0 1 1.206-.15c.16-.016.3-.036.42-.06a.732.732 0 0 0 .3-.126.584.584 0 0 0 .186-.246 1.06 1.06 0 0 0 .066-.408c0-.256-.042-.466-.126-.63a.996.996 0 0 0-.348-.39 1.403 1.403 0 0 0-.516-.198 3.487 3.487 0 0 0-.63-.054c-.48 0-.872.114-1.176.342-.304.228-.464.594-.48 1.098h-.756zm4.032.912h-.024c-.048.088-.14.152-.276.192-.136.04-.256.068-.36.084-.32.056-.65.106-.99.15-.34.044-.65.11-.93.198-.28.088-.51.214-.69.378-.18.164-.27.398-.27.702 0 .192.038.362.114.51.076.148.178.276.306.384.128.108.276.19.444.246.168.056.34.084.516.084.288 0 .564-.044.828-.132.264-.088.494-.216.69-.384.196-.168.352-.372.468-.612.116-.24.174-.512.174-.816v-.984zm1.968-2.808h.756v1.068h.024c.144-.376.4-.678.768-.906a2.257 2.257 0 0 1 1.212-.342c.432 0 .794.056 1.086.168.292.112.526.27.702.474.176.204.3.454.372.75.072.296.108.628.108.996v3.984h-.756v-3.864c0-.264-.024-.51-.072-.738a1.562 1.562 0 0 0-.252-.594c-.12-.168-.282-.3-.486-.396-.204-.096-.458-.144-.762-.144s-.574.054-.81.162a1.753 1.753 0 0 0-.6.444 2.05 2.05 0 0 0-.384.672c-.092.26-.142.542-.15.846v3.612h-.756v-6.192zm5.472 0h.804l2.04 5.28 1.908-5.28h.756l-2.688 7.128a6.897 6.897 0 0 1-.312.654 1.49 1.49 0 0 1-.318.408c-.116.1-.252.172-.408.216a2.234 2.234 0 0 1-.594.066l-.354-.018a.73.73 0 0 1-.222-.042v-.636c.088.016.174.03.258.042.084.012.17.018.258.018.168 0 .306-.024.414-.072a.877.877 0 0 0 .282-.198c.08-.084.148-.186.204-.306.056-.12.116-.252.18-.396l.264-.696-2.472-6.168zm9.012 0h.696v1.176h.024c.176-.432.462-.766.858-1.002a2.586 2.586 0 0 1 1.35-.354c.472 0 .882.088 1.23.264.348.176.638.414.87.714.232.3.404.648.516 1.044.112.396.168.814.168 1.254 0 .44-.056.858-.168 1.254a3.038 3.038 0 0 1-.516 1.044c-.232.3-.522.536-.87.708-.348.172-.758.258-1.23.258-.224 0-.448-.028-.672-.084a2.374 2.374 0 0 1-.624-.252 2.057 2.057 0 0 1-.51-.42 1.79 1.79 0 0 1-.342-.588h-.024v3.456h-.756v-8.472zm4.956 3.096c0-.32-.038-.638-.114-.954a2.638 2.638 0 0 0-.36-.846 1.982 1.982 0 0 0-.63-.606c-.256-.156-.564-.234-.924-.234-.416 0-.764.072-1.044.216-.28.144-.504.336-.672.576a2.27 2.27 0 0 0-.354.84 4.84 4.84 0 0 0-.102 1.008c0 .32.038.638.114.954.076.316.2.598.372.846s.396.45.672.606c.276.156.614.234 1.014.234.36 0 .668-.078.924-.234.256-.156.466-.358.63-.606.164-.248.284-.53.36-.846.076-.316.114-.634.114-.954zm6.096-.432a2.731 2.731 0 0 0-.15-.828 2.267 2.267 0 0 0-.39-.702 1.933 1.933 0 0 0-.612-.492 1.752 1.752 0 0 0-.816-.186c-.312 0-.588.062-.828.186s-.444.288-.612.492c-.168.204-.302.44-.402.708a3.47 3.47 0 0 0-.198.822H49.8zm-4.008.636c0 .272.038.554.114.846.076.292.198.554.366.786.168.232.38.424.636.576.256.152.564.228.924.228.552 0 .984-.144 1.296-.432.312-.288.528-.672.648-1.152h.756c-.16.704-.454 1.248-.882 1.632-.428.384-1.034.576-1.818.576-.488 0-.91-.086-1.266-.258a2.33 2.33 0 0 1-.87-.708 3.08 3.08 0 0 1-.498-1.044 4.746 4.746 0 0 1 0-2.454c.108-.392.274-.742.498-1.05a2.5 2.5 0 0 1 .87-.744c.356-.188.778-.282 1.266-.282.496 0 .92.1 1.272.3.352.2.638.462.858.786.22.324.378.696.474 1.116.096.42.136.846.12 1.278h-4.764zm8.112-2.844c-.36 0-.676.076-.948.228a2.081 2.081 0 0 0-.678.6c-.18.248-.316.53-.408.846a3.439 3.439 0 0 0 0 1.932c.092.316.228.598.408.846.18.248.406.448.678.6.272.152.588.228.948.228s.676-.076.948-.228c.272-.152.498-.352.678-.6.18-.248.316-.53.408-.846a3.439 3.439 0 0 0 0-1.932 2.722 2.722 0 0 0-.408-.846 2.081 2.081 0 0 0-.678-.6 1.911 1.911 0 0 0-.948-.228zm0-.636c.472 0 .89.088 1.254.264.364.176.67.412.918.708s.436.642.564 1.038c.128.396.192.818.192 1.266 0 .448-.064.87-.192 1.266a3.064 3.064 0 0 1-.564 1.038c-.248.296-.554.53-.918.702a2.903 2.903 0 0 1-1.254.258c-.472 0-.89-.086-1.254-.258a2.666 2.666 0 0 1-.918-.702 3.064 3.064 0 0 1-.564-1.038 4.092 4.092 0 0 1-.192-1.266c0-.448.064-.87.192-1.266s.316-.742.564-1.038c.248-.296.554-.532.918-.708a2.847 2.847 0 0 1 1.254-.264zm3.768.18h.696v1.176h.024c.176-.432.462-.766.858-1.002a2.586 2.586 0 0 1 1.35-.354c.472 0 .882.088 1.23.264.348.176.638.414.87.714.232.3.404.648.516 1.044.112.396.168.814.168 1.254 0 .44-.056.858-.168 1.254a3.038 3.038 0 0 1-.516 1.044c-.232.3-.522.536-.87.708-.348.172-.758.258-1.23.258-.224 0-.448-.028-.672-.084a2.374 2.374 0 0 1-.624-.252 2.057 2.057 0 0 1-.51-.42 1.79 1.79 0 0 1-.342-.588h-.024v3.456h-.756v-8.472zm4.956 3.096c0-.32-.038-.638-.114-.954a2.638 2.638 0 0 0-.36-.846 1.982 1.982 0 0 0-.63-.606c-.256-.156-.564-.234-.924-.234-.416 0-.764.072-1.044.216-.28.144-.504.336-.672.576a2.27 2.27 0 0 0-.354.84 4.84 4.84 0 0 0-.102 1.008c0 .32.038.638.114.954.076.316.2.598.372.846s.396.45.672.606c.276.156.614.234 1.014.234.36 0 .668-.078.924-.234.256-.156.466-.358.63-.606.164-.248.284-.53.36-.846.076-.316.114-.634.114-.954zM64.284 32h.756v8.568h-.756V32zm6.372 5.04a2.731 2.731 0 0 0-.15-.828 2.267 2.267 0 0 0-.39-.702 1.933 1.933 0 0 0-.612-.492 1.752 1.752 0 0 0-.816-.186c-.312 0-.588.062-.828.186s-.444.288-.612.492c-.168.204-.302.44-.402.708a3.47 3.47 0 0 0-.198.822h4.008zm-4.008.636c0 .272.038.554.114.846.076.292.198.554.366.786.168.232.38.424.636.576.256.152.564.228.924.228.552 0 .984-.144 1.296-.432.312-.288.528-.672.648-1.152h.756c-.16.704-.454 1.248-.882 1.632-.428.384-1.034.576-1.818.576-.488 0-.91-.086-1.266-.258a2.33 2.33 0 0 1-.87-.708 3.08 3.08 0 0 1-.498-1.044 4.746 4.746 0 0 1 0-2.454c.108-.392.274-.742.498-1.05a2.5 2.5 0 0 1 .87-.744c.356-.188.778-.282 1.266-.282.496 0 .92.1 1.272.3.352.2.638.462.858.786.22.324.378.696.474 1.116.096.42.136.846.12 1.278h-4.764zm8.472-1.404c.024-.36.1-.672.228-.936s.302-.48.522-.648a2.21 2.21 0 0 1 .774-.372c.296-.08.624-.12.984-.12.272 0 .544.026.816.078.272.052.516.15.732.294.216.144.392.346.528.606s.204.598.204 1.014v3.288c0 .304.148.456.444.456a.585.585 0 0 0 .24-.048v.636a2.278 2.278 0 0 1-.492.048c-.192 0-.346-.026-.462-.078a.62.62 0 0 1-.27-.222.833.833 0 0 1-.126-.342 2.936 2.936 0 0 1-.03-.438h-.024c-.136.2-.274.378-.414.534-.14.156-.296.286-.468.39a2.158 2.158 0 0 1-.588.24c-.22.056-.482.084-.786.084-.288 0-.558-.034-.81-.102a1.82 1.82 0 0 1-.66-.324 1.55 1.55 0 0 1-.444-.564 1.876 1.876 0 0 1-.162-.81c0-.432.096-.77.288-1.014.192-.244.446-.43.762-.558a4.347 4.347 0 0 1 1.068-.27 90.32 90.32 0 0 1 1.206-.15c.16-.016.3-.036.42-.06a.732.732 0 0 0 .3-.126.584.584 0 0 0 .186-.246 1.06 1.06 0 0 0 .066-.408c0-.256-.042-.466-.126-.63a.996.996 0 0 0-.348-.39 1.403 1.403 0 0 0-.516-.198 3.487 3.487 0 0 0-.63-.054c-.48 0-.872.114-1.176.342-.304.228-.464.594-.48 1.098h-.756zm4.032.912h-.024c-.048.088-.14.152-.276.192-.136.04-.256.068-.36.084-.32.056-.65.106-.99.15-.34.044-.65.11-.93.198-.28.088-.51.214-.69.378-.18.164-.27.398-.27.702 0 .192.038.362.114.51.076.148.178.276.306.384.128.108.276.19.444.246.168.056.34.084.516.084.288 0 .564-.044.828-.132.264-.088.494-.216.69-.384.196-.168.352-.372.468-.612.116-.24.174-.512.174-.816v-.984zm1.968-2.808h.756v1.068h.024c.144-.376.4-.678.768-.906a2.257 2.257 0 0 1 1.212-.342c.432 0 .794.056 1.086.168.292.112.526.27.702.474.176.204.3.454.372.75.072.296.108.628.108.996v3.984h-.756v-3.864c0-.264-.024-.51-.072-.738a1.562 1.562 0 0 0-.252-.594c-.12-.168-.282-.3-.486-.396-.204-.096-.458-.144-.762-.144s-.574.054-.81.162a1.753 1.753 0 0 0-.6.444 2.05 2.05 0 0 0-.384.672c-.092.26-.142.542-.15.846v3.612h-.756v-6.192zm5.472 0h.804l2.04 5.28 1.908-5.28h.756l-2.688 7.128a6.897 6.897 0 0 1-.312.654 1.49 1.49 0 0 1-.318.408c-.116.1-.252.172-.408.216a2.234 2.234 0 0 1-.594.066l-.354-.018a.73.73 0 0 1-.222-.042v-.636c.088.016.174.03.258.042.084.012.17.018.258.018.168 0 .306-.024.414-.072a.877.877 0 0 0 .282-.198c.08-.084.148-.186.204-.306.056-.12.116-.252.18-.396l.264-.696-2.472-6.168zm5.34 0h.804l1.584 5.304h.024l1.512-5.304h.852l1.512 5.304h.024l1.584-5.304h.804l-1.992 6.192h-.828l-1.524-5.208h-.024l-1.512 5.208h-.828l-1.992-6.192zM101.148 32h.756v3.444h.024c.144-.376.4-.678.768-.906a2.257 2.257 0 0 1 1.212-.342c.432 0 .794.056 1.086.168.292.112.526.27.702.474.176.204.3.454.372.75.072.296.108.628.108.996v3.984h-.756v-3.864c0-.264-.024-.51-.072-.738a1.562 1.562 0 0 0-.252-.594c-.12-.168-.282-.3-.486-.396-.204-.096-.458-.144-.762-.144s-.574.054-.81.162a1.753 1.753 0 0 0-.6.444 2.05 2.05 0 0 0-.384.672c-.092.26-.142.542-.15.846v3.612h-.756V32zm10.62 5.04a2.731 2.731 0 0 0-.15-.828 2.267 2.267 0 0 0-.39-.702 1.933 1.933 0 0 0-.612-.492 1.752 1.752 0 0 0-.816-.186c-.312 0-.588.062-.828.186s-.444.288-.612.492c-.168.204-.302.44-.402.708a3.47 3.47 0 0 0-.198.822h4.008zm-4.008.636c0 .272.038.554.114.846.076.292.198.554.366.786.168.232.38.424.636.576.256.152.564.228.924.228.552 0 .984-.144 1.296-.432.312-.288.528-.672.648-1.152h.756c-.16.704-.454 1.248-.882 1.632-.428.384-1.034.576-1.818.576-.488 0-.91-.086-1.266-.258a2.33 2.33 0 0 1-.87-.708 3.08 3.08 0 0 1-.498-1.044 4.746 4.746 0 0 1 0-2.454c.108-.392.274-.742.498-1.05a2.5 2.5 0 0 1 .87-.744c.356-.188.778-.282 1.266-.282.496 0 .92.1 1.272.3.352.2.638.462.858.786.22.324.378.696.474 1.116.096.42.136.846.12 1.278h-4.764zm5.496-3.3h.696v1.452h.024c.192-.504.49-.892.894-1.164.404-.272.886-.396 1.446-.372v.756a2.282 2.282 0 0 0-.936.138c-.28.108-.522.262-.726.462-.204.2-.362.438-.474.714a2.387 2.387 0 0 0-.168.906v3.3h-.756v-6.192zm7.728 2.664a2.731 2.731 0 0 0-.15-.828 2.267 2.267 0 0 0-.39-.702 1.933 1.933 0 0 0-.612-.492 1.752 1.752 0 0 0-.816-.186c-.312 0-.588.062-.828.186s-.444.288-.612.492c-.168.204-.302.44-.402.708a3.47 3.47 0 0 0-.198.822h4.008zm-4.008.636c0 .272.038.554.114.846.076.292.198.554.366.786.168.232.38.424.636.576.256.152.564.228.924.228.552 0 .984-.144 1.296-.432.312-.288.528-.672.648-1.152h.756c-.16.704-.454 1.248-.882 1.632-.428.384-1.034.576-1.818.576-.488 0-.91-.086-1.266-.258a2.33 2.33 0 0 1-.87-.708 3.08 3.08 0 0 1-.498-1.044 4.746 4.746 0 0 1 0-2.454c.108-.392.274-.742.498-1.05a2.5 2.5 0 0 1 .87-.744c.356-.188.778-.282 1.266-.282.496 0 .92.1 1.272.3.352.2.638.462.858.786.22.324.378.696.474 1.116.096.42.136.846.12 1.278h-4.764z" fill="#FFF" fill-rule="evenodd"/></svg>