<?xml version="1.0" encoding="UTF-8"?>
<svg width="2100px" height="844px" viewBox="0 0 2100 844" version="1.1" xmlns="http://www.w3.org/2000/svg" xmlns:xlink="http://www.w3.org/1999/xlink">
    <!-- Generator: Sketch 49 (51002) - http://www.bohemiancoding.com/sketch -->
    <title>bg-bottom</title>
    <desc>Created with Sketch.</desc>
    <defs>
        <linearGradient x1="50%" y1="0%" x2="50%" y2="100%" id="linearGradient-1">
            <stop stop-color="#65207F" offset="0%"></stop>
            <stop stop-color="#2D2F5A" offset="100%"></stop>
        </linearGradient>
        <path d="M0,0 L2202.61137,0 C2204.87046,537.971635 2206,806.957453 2206,806.957453 C1275.82028,552.78289 554.041475,964.449149 3.38863287,806.957453 C3.38863287,806.957453 2.25908858,537.971635 0,0 Z" id="path-2"></path>
    </defs>
    <g id="Home" stroke="none" stroke-width="1" fill="none" fill-rule="evenodd">
        <g id="Artboard-2" transform="translate(0.000000, -1623.000000)">
            <g id="bg-bottom" transform="translate(16.500000, 1615.000000) scale(-1, -1) translate(-16.500000, -1615.000000) translate(-2100.000000, 763.000000)">
                <mask id="mask-3" fill="white">
                    <use xlink:href="#path-2"></use>
                </mask>
                <use id="Rectangle-2" fill="url(#linearGradient-1)" xlink:href="#path-2"></use>
                <path d="M0,0 L2202.61137,0 C2204.87046,537.971635 2206,806.957453 2206,806.957453 C1275.82028,552.78289 554.041475,964.449149 3.38863287,806.957453 C3.38863287,806.957453 2.25908858,537.971635 0,0 Z" id="Rectangle-2-Copy" fill="url(#linearGradient-1)" mask="url(#mask-3)"></path>
                <polygon id="Rectangle" fill-opacity="0.0599999987" fill="#FFFFFF" mask="url(#mask-3)" transform="translate(369.000000, 514.500000) rotate(45.000000) translate(-369.000000, -514.500000) " points="-23.6025135 -83.5852507 764 -85 764 1114 -26 1114"></polygon>
                <rect id="Rectangle-Copy" fill-opacity="0.0599999987" fill="#FFFFFF" mask="url(#mask-3)" transform="translate(751.000000, 630.000000) rotate(45.000000) translate(-751.000000, -630.000000) " x="356" y="-90" width="790" height="1440"></rect>
                <rect id="Rectangle-Copy-2" fill-opacity="0.0599999987" fill="#FFFFFF" mask="url(#mask-3)" transform="translate(1654.000000, 515.000000) rotate(45.000000) translate(-1654.000000, -515.000000) " x="1259" y="-205" width="790" height="1440"></rect>
                <rect id="Rectangle-4" fill-opacity="0.1" fill="#000000" mask="url(#mask-3)" x="-5" y="598" width="2306" height="291"></rect>
            </g>
        </g>
    </g>
</svg>