<svg width="139px" height="126px" viewBox="0 0 139 126" version="1.1" xmlns="http://www.w3.org/2000/svg" xmlns:xlink="http://www.w3.org/1999/xlink">
    <!-- Generator: Sketch 48.2 (47327) - http://www.bohemiancoding.com/sketch -->
    <desc>Created with Sketch.</desc>
    <defs>
        <linearGradient x1="50%" y1="100%" x2="50%" y2="0%" id="linearGradient-1">
            <stop stop-color="#65207F" offset="0%"></stop>
            <stop stop-color="#2D2F5A" offset="100%"></stop>
        </linearGradient>
    </defs>
    <g id="Logo" stroke="none" stroke-width="1" fill="none" fill-rule="evenodd">
        <g id="Group" transform="translate(-9.000000, 72.000000)">
            <text id="freela.io" font-family="HelveticaNeue-Medium, Helvetica Neue" font-size="40" font-weight="400" letter-spacing="-0.960000038" fill="#65207F">
                <tspan x="9.92000017" y="39">freela.io</tspan>
            </text>
            <text id="people-anywhere" font-family="HelveticaNeue-Light, Helvetica Neue" font-size="12" font-weight="300" letter-spacing="-0.288000017" fill="#2D2F5A">
                <tspan x="37.1380001" y="51">people anywhere</tspan>
            </text>
        </g>
        <path d="M34.8110138,0 C34.2703379,0 34,0.360450563 34,0.811013767 L34,71.1889862 C34,71.6395494 34.3604506,72 34.8110138,72 L105.188986,72 C105.639549,72 106,71.6395494 106,71.1889862 L106,0.811013767 C106,0.270337922 105.639549,0 105.188986,0 L34.8110138,0 Z M47.5168961,7.02878598 L63.0162703,22.5281602 L47.5168961,38.0275344 L41.028786,31.5394243 L50.0400501,22.5281602 L41.028786,13.5168961 L47.5168961,7.02878598 Z M70.0450563,27.0337922 L97.0788486,27.0337922 L97.0788486,36.0450563 L70.0450563,36.0450563 L70.0450563,27.0337922 Z" id="Page-1" fill="url(#linearGradient-1)"></path>
    </g>
</svg>
